<mxfile host="app.diagrams.net" modified="2023-12-06T11:50:28.621Z" agent="Mozilla/5.0 (Macintosh; Intel Mac OS X 10_15_7) AppleWebKit/537.36 (KHTML, like Gecko) Chrome/105.0.0.0 Safari/537.36" version="22.1.5" etag="qUTee9LOLKypyzesOXYF" type="github">
  <diagram name="第 1 页" id="D7ECnBmTStQRldCRusea">
    <mxGraphModel>
      <root>
        <mxCell id="0" />
        <mxCell id="1" parent="0" />
      </root>
    </mxGraphModel>
  </diagram>
</mxfile>
